<svg fill="none" height="15" viewBox="0 0 31 15" width="31" xmlns="http://www.w3.org/2000/svg"><path d="m7.22672 7.49804 4.91708-2.83676c1.1347-.66191 1.5602-2.12756.8983-3.30954-.6619-1.134701-2.1276-1.560212-3.30956-.898304l-8.46299 4.917034z" fill="#e64336"/><path d="m10.9145 14.779c.851 0 1.6548-.4256 2.0803-1.2293.6619-1.1347.2837-2.6476-.8983-3.3095l-8.46299-4.91708c-1.1347-.66191-2.647633-.28368-3.309541.8983-.661909 1.1347-.283664 2.64764.898311 3.30954l8.46296 4.91704c.42556.2364.80376.331 1.22926.331z" fill="#2d80f9"/><path d="m19.3775 14.7789c.4255 0 .8037-.0945 1.1819-.3309l8.463-4.91708-5.9099-2.17484-4.9643 2.88402c-1.1347.6619-1.5602 2.1276-.8983 3.3096.4728.8037 1.2765 1.2292 2.1276 1.2292z" fill="#f7b80c"/><path d="m27.8405 9.90917c.851 0 1.6547-.42552 2.0803-1.22926.6619-1.1347.2836-2.64764-.8983-3.30955l-8.463-4.869753c-1.1347-.661909-2.6477-.283674-3.3096.898303-.6619 1.1347-.2836 2.64764.8983 3.30955l8.463 4.91703c.3782.14184.8038.28368 1.2293.28368z" fill="#0f9d58"/></svg>