<svg width="69" height="69" viewBox="0 0 69 69" fill="none" xmlns="http://www.w3.org/2000/svg">
<g opacity="0.4">
<path d="M1.4375 11.5C2.22812 11.5 2.875 10.8531 2.875 10.0625L2.875 2.875L10.0625 2.875C10.8531 2.875 11.5 2.22812 11.5 1.4375C11.5 0.646875 10.8531 0 10.0625 0L1.4375 0C0.646875 0 0 0.646875 0 1.4375L0 10.0625C0 10.8531 0.646875 11.5 1.4375 11.5Z" fill="#296B4B"/>
<path d="M67.5625 0L58.9375 0C58.1469 0 57.5 0.646875 57.5 1.4375C57.5 2.22812 58.1469 2.875 58.9375 2.875L66.125 2.875V10.0625C66.125 10.8531 66.7719 11.5 67.5625 11.5C68.3531 11.5 69 10.8531 69 10.0625V1.4375C69 0.646875 68.3531 0 67.5625 0Z" fill="#296B4B"/>
<path d="M67.5625 57.5C66.7719 57.5 66.125 58.1469 66.125 58.9375V66.125H58.9375C58.1469 66.125 57.5 66.7719 57.5 67.5625C57.5 68.3531 58.1469 69 58.9375 69H67.5625C68.3531 69 69 68.3531 69 67.5625V58.9375C69 58.1469 68.3531 57.5 67.5625 57.5Z" fill="#296B4B"/>
<path d="M1.4375 69H10.0625C10.8531 69 11.5 68.3531 11.5 67.5625C11.5 66.7719 10.8531 66.125 10.0625 66.125H2.875L2.875 58.9375C2.875 58.1469 2.22812 57.5 1.4375 57.5C0.646875 57.5 0 58.1469 0 58.9375L0 67.5625C0 68.3531 0.646875 69 1.4375 69Z" fill="#296B4B"/>
<path d="M36.5832 25.0876C36.9147 25.0876 37.2459 24.9456 37.5298 24.7089L40.9378 21.3009C41.5532 20.6855 42.547 20.4963 43.3517 20.9222C44.0143 21.2537 44.7717 20.9694 45.1029 20.3068C45.4344 19.6441 45.1501 18.8867 44.4875 18.5555C42.6415 17.6561 40.464 18.0349 39.0443 19.455L35.6364 22.8629C35.1157 23.3836 35.1157 24.1883 35.6364 24.7089C35.9206 24.9457 36.2521 25.0876 36.5833 25.0876L36.5832 25.0876Z" fill="#296B4B"/>
<path d="M50.0731 28.8742C52.203 26.2237 52.8184 22.5789 51.588 19.3603L51.9667 18.9816C52.7241 18.2242 53.15 17.1828 53.15 16.0942C53.15 15.0057 52.7241 13.9643 51.9667 13.2069C50.3574 11.5977 47.8013 11.5977 46.192 13.2069L45.8133 13.5856C42.3106 12.3076 38.2399 13.1594 35.542 15.8575L17.3661 33.9861C16.7035 33.5602 15.9461 33.3235 15.1415 33.3235C14.0529 33.3235 13.0116 33.7494 12.2069 34.554C10.5977 36.1633 10.5977 38.7667 12.2069 40.3759L24.8449 53.0138C25.6495 53.8185 26.6908 54.1972 27.7794 54.1972C28.8208 54.1972 29.9093 53.7713 30.714 53.0138C31.4714 52.2564 31.9446 51.2151 31.9446 50.0793C31.9446 49.2747 31.7078 48.5173 31.2819 47.8546L36.0156 43.0741C37.7668 46.5293 41.3168 48.896 45.4348 48.896C51.2567 48.896 55.9901 44.1626 55.9901 38.3407C55.9901 34.1753 53.5762 30.6253 50.0735 28.8741L50.0731 28.8742ZM28.8206 51.1681C28.2527 51.736 27.3058 51.736 26.6907 51.1681L14.1001 38.5302C13.5322 37.9623 13.5322 37.0153 14.1001 36.4003C14.384 36.1163 14.7627 35.9743 15.1414 35.9743C15.5201 35.9743 15.8988 36.1163 16.1827 36.4003L28.8207 49.0382C29.1046 49.3221 29.2466 49.7008 29.2466 50.0795C29.2941 50.5054 29.1049 50.8841 28.8207 51.1681H28.8206ZM29.436 45.9141L20.1587 36.6368L19.3069 35.7847L37.3881 17.7034C39.518 15.5735 42.8313 15.0053 45.5767 16.331C46.0974 16.5677 46.6652 16.4729 47.0915 16.0942L48.0857 15.1001C48.6536 14.5322 49.5529 14.5322 50.1208 15.1001C50.4048 15.384 50.5467 15.7155 50.5467 16.1414C50.5467 16.5201 50.4048 16.8988 50.1208 17.1827L49.1267 18.1296C48.7479 18.5083 48.6532 19.1238 48.8899 19.6445C50.2152 22.3898 49.6945 25.7031 47.5174 27.833L47.3755 27.975C46.76 27.833 46.0974 27.7858 45.3875 27.7858C39.5656 27.7858 34.8322 32.5191 34.8322 38.3411C34.8322 39.0037 34.8794 39.6664 35.0214 40.329L29.436 45.9141ZM45.4346 46.2456C41.0799 46.2456 37.4828 42.6956 37.4828 38.2938C37.4828 33.9392 41.0328 30.342 45.4346 30.342C49.8364 30.3417 53.3864 33.9389 53.3864 38.3411C53.3864 42.6957 49.7891 46.2457 45.4346 46.2457V46.2456Z" fill="#296B4B"/>
<path d="M48.1325 35.1695L44.2986 39.0034L42.6418 37.3466C42.1211 36.8259 41.3164 36.8259 40.7958 37.3466C40.2751 37.8673 40.2751 38.6719 40.7958 39.1926L43.3992 41.796C43.6359 42.0327 43.9671 42.1747 44.3457 42.1747C44.6772 42.1747 45.0084 42.0327 45.2923 41.796L50.0729 37.0154C50.5936 36.4947 50.5936 35.6901 50.0729 35.1694C49.4578 34.6491 48.606 34.6491 48.1325 35.1694V35.1695Z" fill="#296B4B"/>
</g>
</svg>
