<svg width="174" height="110" viewBox="0 0 174 110" fill="none" xmlns="http://www.w3.org/2000/svg">
<g filter="url(#filter0_d_314_516)">
<path d="M20 11C20 5.47715 24.4772 1 30 1H143.59C151.308 1 156.116 9.37207 152.228 16.0386L123.062 66.0386C121.269 69.1108 117.98 71 114.424 71H30C24.4771 71 20 66.5228 20 61V11Z" fill="#E64336"/>
</g>
<path d="M49.916 23.88C52.124 23.88 54.068 24.228 55.748 24.924C57.452 25.596 58.928 26.592 60.176 27.912L57.188 31.908C56.156 30.828 55.04 30.024 53.84 29.496C52.664 28.944 51.32 28.668 49.808 28.668C48.488 28.668 47.54 28.884 46.964 29.316C46.388 29.748 46.1 30.276 46.1 30.9C46.1 31.404 46.328 31.836 46.784 32.196C47.264 32.532 48.032 32.82 49.088 33.06L53.084 33.96C55.46 34.512 57.2 35.316 58.304 36.372C59.408 37.428 59.96 38.832 59.96 40.584C59.96 42.264 59.528 43.692 58.664 44.868C57.8 46.02 56.612 46.896 55.1 47.496C53.588 48.072 51.86 48.36 49.916 48.36C47.516 48.36 45.32 47.976 43.328 47.208C41.336 46.416 39.752 45.384 38.576 44.112L41.564 39.972C42.452 41.004 43.652 41.868 45.164 42.564C46.676 43.236 48.236 43.572 49.844 43.572C52.34 43.572 53.588 42.84 53.588 41.376C53.588 40.872 53.396 40.452 53.012 40.116C52.652 39.756 51.98 39.456 50.996 39.216L46.604 38.244C45.26 37.956 44.06 37.548 43.004 37.02C41.972 36.492 41.156 35.796 40.556 34.932C39.956 34.044 39.656 32.94 39.656 31.62C39.656 30.132 40.064 28.812 40.88 27.66C41.696 26.484 42.872 25.56 44.408 24.888C45.944 24.216 47.78 23.88 49.916 23.88ZM73.9111 24.24C77.6311 24.24 80.4751 25.272 82.4431 27.336C84.4351 29.4 85.4311 32.328 85.4311 36.12C85.4311 39.912 84.4351 42.84 82.4431 44.904C80.4751 46.968 77.6311 48 73.9111 48H63.8311V24.24H73.9111ZM73.2991 43.32C75.3151 43.32 76.7791 42.72 77.6911 41.52C78.6271 40.296 79.0951 38.496 79.0951 36.12C79.0951 33.744 78.6271 31.956 77.6911 30.756C76.7791 29.532 75.3151 28.92 73.2991 28.92H70.0231V43.32H73.2991ZM99.499 48.36C97.387 48.36 95.503 47.892 93.847 46.956C92.215 46.02 90.943 44.64 90.031 42.816C89.119 40.992 88.663 38.772 88.663 36.156C88.663 33.612 89.143 31.428 90.103 29.604C91.063 27.756 92.431 26.34 94.207 25.356C96.007 24.372 98.119 23.88 100.543 23.88C103.255 23.88 105.427 24.372 107.059 25.356C108.715 26.316 109.999 27.852 110.911 29.964L105.187 32.232C104.875 31.008 104.323 30.12 103.531 29.568C102.739 29.016 101.755 28.74 100.579 28.74C98.803 28.74 97.423 29.376 96.439 30.648C95.479 31.896 94.999 33.72 94.999 36.12C94.999 38.664 95.491 40.56 96.475 41.808C97.459 43.032 98.935 43.644 100.903 43.644C102.271 43.644 103.411 43.32 104.323 42.672C105.235 42.024 105.691 41.028 105.691 39.684V39.324H100.255V35.184H110.947V48H106.735L106.483 45.084C105.811 46.14 104.887 46.956 103.711 47.532C102.559 48.084 101.155 48.36 99.499 48.36Z" fill="white"/>
<defs>
<filter id="filter0_d_314_516" x="0" y="0" width="173.605" height="110" filterUnits="userSpaceOnUse" color-interpolation-filters="sRGB">
<feFlood flood-opacity="0" result="BackgroundImageFix"/>
<feColorMatrix in="SourceAlpha" type="matrix" values="0 0 0 0 0 0 0 0 0 0 0 0 0 0 0 0 0 0 127 0" result="hardAlpha"/>
<feOffset dy="19"/>
<feGaussianBlur stdDeviation="10"/>
<feComposite in2="hardAlpha" operator="out"/>
<feColorMatrix type="matrix" values="0 0 0 0 0 0 0 0 0 0 0 0 0 0 0 0 0 0 0.25 0"/>
<feBlend mode="normal" in2="BackgroundImageFix" result="effect1_dropShadow_314_516"/>
<feBlend mode="normal" in="SourceGraphic" in2="effect1_dropShadow_314_516" result="shape"/>
</filter>
</defs>
</svg>
