<svg width="207" height="250" viewBox="0 0 207 250" fill="none" xmlns="http://www.w3.org/2000/svg">
<path d="M204.352 58.3908C204.345 58.3908 204.338 58.3929 204.331 58.3931V16.9271C204.331 12.4377 202.547 8.13227 199.373 4.95783C196.198 1.78338 191.893 0 187.404 0L57.5832 0C53.0939 0 48.7884 1.78338 45.614 4.95783C42.4396 8.13227 40.6561 12.4377 40.6561 16.9271V38.1848C40.2977 38.1924 39.9566 38.3401 39.7057 38.5961C39.4548 38.8522 39.3142 39.1963 39.3139 39.5548V50.084C39.3141 50.4424 39.4548 50.7865 39.7057 51.0426C39.9566 51.2986 40.2977 51.4462 40.6561 51.4538V62.4841H40.5873C40.407 62.484 40.2285 62.5196 40.0619 62.5886C39.8953 62.6576 39.7439 62.7587 39.6164 62.8862C39.4889 63.0137 39.3878 63.1651 39.3188 63.3316C39.2498 63.4982 39.2143 63.6768 39.2143 63.8571V84.2179C39.2143 84.3982 39.2498 84.5767 39.3188 84.7433C39.3878 84.9099 39.4889 85.0613 39.6164 85.1888C39.7439 85.3163 39.8953 85.4174 40.0619 85.4864C40.2285 85.5554 40.407 85.5909 40.5873 85.5909H40.6561V93.6776H40.6347C40.4544 93.6775 40.2759 93.7131 40.1093 93.7821C39.9427 93.8511 39.7914 93.9522 39.6639 94.0797C39.5364 94.2072 39.4352 94.3586 39.3662 94.5251C39.2972 94.6917 39.2617 94.8703 39.2617 95.0506V115.611C39.2617 115.791 39.2972 115.969 39.3662 116.136C39.4352 116.303 39.5364 116.454 39.6639 116.581C39.7914 116.709 39.9427 116.81 40.1093 116.879C40.2759 116.948 40.4544 116.984 40.6347 116.984H40.6561L40.6561 315.72C40.6561 320.209 42.4396 324.515 45.614 327.689C48.7884 330.864 53.0939 332.647 57.5832 332.647H187.404C191.893 332.647 196.198 330.864 199.373 327.689C202.547 324.515 204.331 320.209 204.331 315.72L204.331 98.7122C204.338 98.7122 204.345 98.7143 204.352 98.7143C204.673 98.7143 204.991 98.6511 205.288 98.5282C205.584 98.4053 205.854 98.2253 206.081 97.9982C206.308 97.7712 206.488 97.5017 206.611 97.2051C206.734 96.9084 206.797 96.5905 206.797 96.2694V60.8359C206.797 60.1874 206.539 59.5655 206.081 59.107C205.622 58.6485 205.001 58.3908 204.352 58.3908Z" fill="#3F3D56"/>
<path d="M194.224 21.6651L194.224 310.977C194.223 314.424 192.853 317.729 190.415 320.166C187.977 322.603 184.671 323.972 181.224 323.972H63.7637C60.3167 323.972 57.0108 322.603 54.5729 320.166C52.1351 317.729 50.7649 314.424 50.7636 310.977L50.7636 21.6651C50.7636 18.2173 52.1333 14.9107 54.5713 12.4727C57.0093 10.0347 60.3159 8.66504 63.7637 8.66504L81.3406 8.66504V10.9463C81.3418 13.785 82.47 16.507 84.4772 18.5142C86.4845 20.5214 89.2065 21.6496 92.0451 21.6509L151.805 21.6509C154.64 21.6446 157.356 20.514 159.359 18.5072C161.361 16.5004 162.485 13.7812 162.485 10.9463V8.68875L181.224 8.68875C184.668 8.68875 187.971 10.0551 190.408 12.488C192.846 14.9209 194.218 18.2214 194.224 21.6651Z" fill="white"/>
<path d="M77.071 46.9501H64.2654C63.9509 46.9501 63.6493 46.8252 63.4269 46.6029C63.2046 46.3805 63.0797 46.0789 63.0797 45.7644C63.0797 45.45 63.2046 45.1484 63.4269 44.926C63.6493 44.7037 63.9509 44.5787 64.2654 44.5787H77.071C77.3854 44.5787 77.687 44.7037 77.9094 44.926C78.1317 45.1484 78.2567 45.45 78.2567 45.7644C78.2567 46.0789 78.1317 46.3805 77.9094 46.6029C77.687 46.8252 77.3854 46.9501 77.071 46.9501Z" fill="#3F3D56"/>
<path d="M77.071 50.2701H64.2654C63.9509 50.2701 63.6493 50.1452 63.4269 49.9228C63.2046 49.7004 63.0797 49.3989 63.0797 49.0844C63.0797 48.7699 63.2046 48.4683 63.4269 48.246C63.6493 48.0236 63.9509 47.8987 64.2654 47.8987H77.071C77.3854 47.8987 77.687 48.0236 77.9094 48.246C78.1317 48.4683 78.2567 48.7699 78.2567 49.0844C78.2567 49.3989 78.1317 49.7004 77.9094 49.9228C77.687 50.1452 77.3854 50.2701 77.071 50.2701Z" fill="#3F3D56"/>
<path d="M77.071 53.5899H64.2654C63.9509 53.5899 63.6493 53.465 63.4269 53.2426C63.2046 53.0203 63.0797 52.7187 63.0797 52.4042C63.0797 52.0897 63.2046 51.7881 63.4269 51.5658C63.6493 51.3434 63.9509 51.2185 64.2654 51.2185H77.071C77.3854 51.2185 77.687 51.3434 77.9094 51.5658C78.1317 51.7881 78.2567 52.0897 78.2567 52.4042C78.2567 52.7187 78.1317 53.0203 77.9094 53.2426C77.687 53.465 77.3854 53.5899 77.071 53.5899Z" fill="#3F3D56"/>
<path d="M176.334 50.2938H175.902L175.736 50.1563C176.281 49.5064 176.58 48.6853 176.58 47.837C176.577 47.1391 176.366 46.458 175.975 45.8799C175.584 45.3017 175.031 44.8524 174.385 44.5888C173.738 44.3252 173.029 44.2591 172.345 44.399C171.661 44.5388 171.034 44.8782 170.543 45.3744C170.052 45.8705 169.72 46.501 169.587 47.1862C169.455 47.8715 169.528 48.5806 169.799 49.2239C170.07 49.8672 170.525 50.4159 171.107 50.8005C171.689 51.1851 172.373 51.3884 173.071 51.3847C173.916 51.3787 174.734 51.0804 175.385 50.5404L175.546 50.678V51.1143L178.269 53.8414L179.085 53.0257L176.334 50.2938ZM173.071 50.2938C172.585 50.2957 172.109 50.1534 171.704 49.885C171.299 49.6167 170.983 49.2342 170.795 48.786C170.607 48.3378 170.557 47.844 170.65 47.3671C170.743 46.8901 170.975 46.4515 171.317 46.1066C171.66 45.7617 172.096 45.526 172.573 45.4293C173.049 45.3327 173.543 45.3794 173.993 45.5637C174.442 45.7479 174.827 46.0613 175.099 46.4642C175.37 46.8672 175.516 47.3416 175.518 47.8275L175.518 47.837C175.52 48.1578 175.459 48.4758 175.337 48.7728C175.216 49.0699 175.038 49.3402 174.813 49.5683C174.587 49.7964 174.319 49.9779 174.023 50.1024C173.728 50.2269 173.41 50.2919 173.09 50.2938C173.083 50.2938 173.077 50.2938 173.071 50.2938H173.071Z" fill="#3F3D56"/>
<path d="M174.222 90.5841H151.217C149.833 90.5841 148.506 90.0344 147.528 89.056C146.55 88.0776 146 86.7507 146 85.367C146 83.9833 146.55 82.6564 147.528 81.678C148.506 80.6996 149.833 80.1499 151.217 80.1499H174.222C175.606 80.1499 176.933 80.6996 177.911 81.678C178.89 82.6564 179.439 83.9833 179.439 85.367C179.439 86.7507 178.89 88.0776 177.911 89.056C176.933 90.0344 175.606 90.5841 174.222 90.5841Z" fill="#2D80F9"/>
<path d="M173.587 101.967H77.7817C77.0269 101.967 76.3031 101.667 75.7695 101.133C75.2358 100.6 74.936 99.8758 74.936 99.1211C74.936 98.3664 75.2358 97.6425 75.7695 97.1089C76.3031 96.5752 77.0269 96.2754 77.7817 96.2754H173.587C174.341 96.2754 175.065 96.5752 175.599 97.1089C176.132 97.6425 176.432 98.3664 176.432 99.1211C176.432 99.8758 176.132 100.6 175.599 101.133C175.065 101.667 174.341 101.967 173.587 101.967Z" fill="#E6E6E6"/>
<path d="M112.973 113.349H77.7814C77.0267 113.349 76.3029 113.05 75.7692 112.516C75.2355 111.982 74.9357 111.258 74.9357 110.504C74.9357 109.749 75.2355 109.025 75.7692 108.492C76.3029 107.958 77.0267 107.658 77.7814 107.658H112.973C113.728 107.658 114.452 107.958 114.985 108.492C115.519 109.025 115.819 109.749 115.819 110.504C115.819 111.258 115.519 111.982 114.985 112.516C114.452 113.05 113.728 113.349 112.973 113.349Z" fill="#E6E6E6"/>
<path d="M103.158 216.743H80.1531C78.7694 216.743 77.4424 216.193 76.464 215.215C75.4856 214.237 74.936 212.91 74.936 211.526C74.936 210.142 75.4856 208.815 76.464 207.837C77.4424 206.858 78.7694 206.309 80.1531 206.309H103.158C104.542 206.309 105.869 206.858 106.847 207.837C107.826 208.815 108.375 210.142 108.375 211.526C108.375 212.91 107.826 214.237 106.847 215.215C105.869 216.193 104.542 216.743 103.158 216.743Z" fill="#2D80F9"/>
<path d="M173.586 228.126H77.7814C77.0267 228.126 76.3029 227.826 75.7692 227.292C75.2355 226.759 74.9357 226.035 74.9357 225.28C74.9357 224.525 75.2355 223.802 75.7692 223.268C76.3029 222.734 77.0267 222.434 77.7814 222.434H173.586C174.341 222.434 175.065 222.734 175.598 223.268C176.132 223.802 176.432 224.525 176.432 225.28C176.432 226.035 176.132 226.759 175.598 227.292C175.065 227.826 174.341 228.126 173.586 228.126Z" fill="#E6E6E6"/>
<path d="M112.973 239.509H77.7814C77.0267 239.509 76.3029 239.209 75.7692 238.675C75.2355 238.141 74.9357 237.418 74.9357 236.663C74.9357 235.908 75.2355 235.184 75.7692 234.651C76.3029 234.117 77.0267 233.817 77.7814 233.817H112.973C113.728 233.817 114.452 234.117 114.985 234.651C115.519 235.184 115.819 235.908 115.819 236.663C115.819 237.418 115.519 238.141 114.985 238.675C114.452 239.209 113.728 239.509 112.973 239.509Z" fill="#E6E6E6"/>
<path d="M187.104 185.46H4.03139C2.96258 185.459 1.9379 185.034 1.18213 184.278C0.426363 183.522 0.00123141 182.498 0 181.429L0 131.629C0.00119383 130.561 0.426311 129.536 1.18209 128.78C1.93786 128.024 2.96257 127.599 4.03139 127.598L187.104 127.598C188.173 127.599 189.198 128.024 189.953 128.78C190.709 129.536 191.134 130.561 191.135 131.629V181.429C191.134 182.498 190.709 183.522 189.953 184.278C189.198 185.034 188.173 185.459 187.104 185.46Z" fill="#2D80F9"/>
<path d="M173.741 159.689H55.6445C54.8898 159.689 54.1659 159.389 53.6323 158.856C53.0986 158.322 52.7988 157.598 52.7988 156.843C52.7988 156.089 53.0986 155.365 53.6323 154.831C54.1659 154.297 54.8898 153.998 55.6445 153.998H173.741C174.495 153.998 175.219 154.297 175.753 154.831C176.286 155.365 176.586 156.089 176.586 156.843C176.586 157.598 176.286 158.322 175.753 158.856C175.219 159.389 174.495 159.689 173.741 159.689Z" fill="#E6E6E6"/>
<path d="M31.7972 161L27.7972 157L23.7972 161" stroke="#E6E6E6" stroke-width="2" stroke-linecap="round" stroke-linejoin="round"/>
<path d="M27.7972 157V166" stroke="#E6E6E6" stroke-width="2" stroke-linecap="round" stroke-linejoin="round"/>
<path d="M36.1872 163.39C38.1936 162.296 39.2031 159.981 38.6394 157.767C38.0757 155.552 36.0824 154.001 33.7972 154H32.5372C31.7083 150.794 28.9896 148.43 25.6994 148.054C22.4092 147.678 19.2276 149.369 17.6973 152.306C16.167 155.242 16.6043 158.818 18.7972 161.3" stroke="#E6E6E6" stroke-width="2" stroke-linecap="round" stroke-linejoin="round"/>
<path d="M31.7972 161L27.7972 157L23.7972 161" stroke="#E6E6E6" stroke-width="2" stroke-linecap="round" stroke-linejoin="round"/>
</svg>
