<svg width="21" height="23" viewBox="0 0 21 23" fill="none" xmlns="http://www.w3.org/2000/svg">
<path d="M1.22455 21.7295L10.5372 12.4433L13.8198 15.7161L2.7491 21.8541C2.32817 22.0876 1.81261 22.0841 1.39433 21.8444L1.22455 21.7295ZM9.59809 11.5068L0.719604 20.3597V2.65399L9.59809 11.5068ZM15.1463 7.84843L19.4838 10.2529C19.91 10.4899 20.1744 10.9338 20.1744 11.4149C20.1744 11.8959 19.91 12.3398 19.4838 12.5768L15.0278 15.0467L11.4772 11.5068L15.1463 7.84843ZM1.12639 1.18603C1.20598 1.1091 1.29529 1.04189 1.39433 0.985292C1.81261 0.745644 2.32817 0.742106 2.7491 0.975565L13.9383 7.17901L10.5372 10.5703L1.12639 1.18603Z" fill="#202124"/>
</svg>
