<svg width="69" height="69" viewBox="0 0 69 69" fill="none" xmlns="http://www.w3.org/2000/svg">
<g opacity="0.4">
<path d="M1.4375 11.5C2.22812 11.5 2.875 10.8531 2.875 10.0625L2.875 2.875L10.0625 2.875C10.8531 2.875 11.5 2.22812 11.5 1.4375C11.5 0.646875 10.8531 0 10.0625 0L1.4375 0C0.646875 0 0 0.646875 0 1.4375L0 10.0625C0 10.8531 0.646875 11.5 1.4375 11.5Z" fill="#2D80F9"/>
<path d="M67.5625 0L58.9375 0C58.1469 0 57.5 0.646875 57.5 1.4375C57.5 2.22812 58.1469 2.875 58.9375 2.875L66.125 2.875V10.0625C66.125 10.8531 66.7719 11.5 67.5625 11.5C68.3531 11.5 69 10.8531 69 10.0625V1.4375C69 0.646875 68.3531 0 67.5625 0Z" fill="#2D80F9"/>
<path d="M67.5625 57.5C66.7719 57.5 66.125 58.1469 66.125 58.9375V66.125H58.9375C58.1469 66.125 57.5 66.7719 57.5 67.5625C57.5 68.3531 58.1469 69 58.9375 69H67.5625C68.3531 69 69 68.3531 69 67.5625V58.9375C69 58.1469 68.3531 57.5 67.5625 57.5Z" fill="#2D80F9"/>
<path d="M1.4375 69H10.0625C10.8531 69 11.5 68.3531 11.5 67.5625C11.5 66.7719 10.8531 66.125 10.0625 66.125H2.875L2.875 58.9375C2.875 58.1469 2.22812 57.5 1.4375 57.5C0.646875 57.5 0 58.1469 0 58.9375L0 67.5625C0 68.3531 0.646875 69 1.4375 69Z" fill="#2D80F9"/>
<path d="M55.5007 28.0586V22.1252C55.5007 21.7318 55.3445 21.3544 55.0663 21.0762C54.7882 20.7981 54.4107 20.6418 54.0174 20.6418H46.6006V12.4834C46.6006 12.09 46.4443 11.7125 46.1662 11.4344C45.8881 11.1563 45.5106 11 45.1172 11H21.3835C20.9902 11 20.6127 11.1563 20.3346 11.4344C20.0564 11.7125 19.9001 12.09 19.9001 12.4834V20.6418H12.4834C12.09 20.6418 11.7125 20.7981 11.4344 21.0762C11.1563 21.3544 11 21.7318 11 22.1252V28.0586C11.0026 28.9768 11.2891 29.8715 11.8202 30.6204C12.3512 31.3694 13.1012 31.9356 13.9667 32.2419V52.5342H12.4833C11.9532 52.5342 11.4636 52.817 11.1987 53.2759C10.9338 53.7348 10.9338 54.3003 11.1987 54.7592C11.4636 55.2181 11.9533 55.5009 12.4833 55.5009H54.0174C54.5475 55.5009 55.0372 55.2182 55.302 54.7592C55.5669 54.3003 55.5669 53.7348 55.302 53.2759C55.0372 52.817 54.5475 52.5342 54.0174 52.5342H52.534V32.2419C53.3995 31.9356 54.1495 31.3694 54.6806 30.6204C55.2116 29.8715 55.4981 28.9768 55.5007 28.0586H55.5007ZM22.8669 13.9667H43.6339V24.3502H22.8669V13.9667ZM13.9667 23.6085H19.9001V25.8336C19.9001 26.2269 20.0564 26.6044 20.3346 26.8825C20.6127 27.1607 20.9902 27.3169 21.3835 27.3169H45.1172C45.5106 27.3169 45.8881 27.1607 46.1662 26.8825C46.4443 26.6044 46.6006 26.2269 46.6006 25.8336V23.6085H52.534V28.0586C52.534 28.452 52.3777 28.8294 52.0996 29.1076C51.8215 29.3857 51.444 29.542 51.0507 29.542H15.4501C15.0567 29.542 14.6793 29.3857 14.4011 29.1076C14.123 28.8294 13.9667 28.452 13.9667 28.0586V23.6085ZM39.1838 52.534H34.7337V43.6339H37.7004C38.0938 43.6339 38.4713 43.7902 38.7494 44.0683C39.0275 44.3464 39.1838 44.7239 39.1838 45.1172V52.534ZM31.767 52.534H27.3169V45.1172C27.3169 44.7239 27.4732 44.3464 27.7514 44.0683C28.0295 43.7902 28.4069 43.6339 28.8003 43.6339H31.767V52.534ZM42.1505 52.534V45.1172C42.1505 43.9368 41.6817 42.8051 40.8473 41.9704C40.0126 41.136 38.8809 40.6672 37.7004 40.6672H28.8003C27.6199 40.6672 26.4882 41.136 25.6535 41.9704C24.8191 42.8051 24.3502 43.9368 24.3502 45.1172V52.534H16.9334V32.5087H49.5673V52.534H42.1505Z" fill="#2D80F9"/>
<path d="M35.4754 17.6751H34.7337V16.9334C34.7337 16.4033 34.451 15.9136 33.9921 15.6487C33.5331 15.3839 32.9676 15.3839 32.5087 15.6487C32.0498 15.9136 31.767 16.4033 31.767 16.9334V17.6751H31.0253C30.4952 17.6751 30.0056 17.9579 29.7407 18.4168C29.4758 18.8757 29.4758 19.4412 29.7407 19.9001C30.0056 20.359 30.4953 20.6418 31.0253 20.6418H31.767V21.3835C31.767 21.9136 32.0498 22.4033 32.5087 22.6682C32.9676 22.933 33.5332 22.933 33.9921 22.6682C34.451 22.4033 34.7337 21.9136 34.7337 21.3835V20.6418H35.4754C36.0055 20.6418 36.4952 20.359 36.7601 19.9001C37.025 19.4412 37.025 18.8757 36.7601 18.4168C36.4952 17.9579 36.0055 17.6751 35.4754 17.6751Z" fill="#2D80F9"/>
</g>
</svg>
