<svg width="69" height="69" viewBox="0 0 69 69" fill="none" xmlns="http://www.w3.org/2000/svg">
<g opacity="0.4">
<path d="M1.4375 11.5C2.22812 11.5 2.875 10.8531 2.875 10.0625L2.875 2.875L10.0625 2.875C10.8531 2.875 11.5 2.22812 11.5 1.4375C11.5 0.646875 10.8531 0 10.0625 0L1.4375 0C0.646875 0 0 0.646875 0 1.4375L0 10.0625C0 10.8531 0.646875 11.5 1.4375 11.5Z" fill="#EE4C57"/>
<path d="M67.5625 0L58.9375 0C58.1469 0 57.5 0.646875 57.5 1.4375C57.5 2.22812 58.1469 2.875 58.9375 2.875L66.125 2.875V10.0625C66.125 10.8531 66.7719 11.5 67.5625 11.5C68.3531 11.5 69 10.8531 69 10.0625V1.4375C69 0.646875 68.3531 0 67.5625 0Z" fill="#EE4C57"/>
<path d="M67.5625 57.5C66.7719 57.5 66.125 58.1469 66.125 58.9375V66.125H58.9375C58.1469 66.125 57.5 66.7719 57.5 67.5625C57.5 68.3531 58.1469 69 58.9375 69H67.5625C68.3531 69 69 68.3531 69 67.5625V58.9375C69 58.1469 68.3531 57.5 67.5625 57.5Z" fill="#EE4C57"/>
<path d="M1.4375 69H10.0625C10.8531 69 11.5 68.3531 11.5 67.5625C11.5 66.7719 10.8531 66.125 10.0625 66.125H2.875L2.875 58.9375C2.875 58.1469 2.22812 57.5 1.4375 57.5C0.646875 57.5 0 58.1469 0 58.9375L0 67.5625C0 68.3531 0.646875 69 1.4375 69Z" fill="#EE4C57"/>
<path d="M33.4 12C21.0474 12 11 22.04 11 34.3842C11 38.9576 12.415 43.1844 14.7769 46.7312L11.1469 54.5396H11.1465C10.9659 54.9335 10.9568 55.3848 11.1222 55.7857C11.2871 56.1861 11.6116 56.5004 12.0175 56.6527C12.4234 56.8053 12.8747 56.7824 13.2628 56.5895L20.7839 52.8318C21.0605 53.0193 21.3225 53.209 21.6793 53.4175V53.4172C22.0365 53.6803 22.4892 53.7794 22.9239 53.6893C23.3585 53.5992 23.7342 53.3289 23.9576 52.9455C24.1807 52.5622 24.2301 52.1018 24.0939 51.6796C23.9572 51.2577 23.6477 50.9136 23.2421 50.733C22.6557 50.3907 22.4006 50.1919 21.8257 49.7733C21.5928 49.6036 21.3173 49.5019 21.0303 49.479C20.7428 49.4557 20.4547 49.5128 20.1978 49.6432L15.8674 51.8068L17.9673 47.2843H17.9677C18.0862 47.0321 18.1352 46.753 18.1094 46.4754C18.0836 46.1981 17.9841 45.9325 17.8209 45.7065C15.5015 42.5256 14.1257 38.6262 14.1257 34.3846C14.1257 23.7288 22.7365 15.1242 33.4002 15.1242C44.0638 15.1242 52.6746 23.7288 52.6746 34.3846C52.6746 45.0405 44.0638 53.6451 33.4002 53.6451C30.9859 53.6451 29.4492 53.8279 27.6538 53.2058V53.2062C27.2534 53.0296 26.7974 53.0292 26.3962 53.2047C25.9954 53.3802 25.6869 53.7156 25.5448 54.1291C25.4031 54.543 25.4412 54.9968 25.6502 55.3813C25.8591 55.7654 26.2199 56.0445 26.6444 56.1506C29.1324 57.0125 31.1854 56.7687 33.4002 56.7687C45.7528 56.7687 55.8002 46.7286 55.8002 34.3845C55.8002 22.0403 45.7528 12.0003 33.4002 12.0003L33.4 12ZM33.4 18.2467C27.3825 18.2467 22.4605 23.1169 22.4605 29.0969C22.4605 32.5279 23.7995 34.5443 24.8537 35.9618C25.9078 37.3793 26.628 38.1609 26.628 40.6304V40.6308C26.628 41.045 26.7926 41.4422 27.0859 41.7351C27.3791 42.0279 27.7763 42.1926 28.1909 42.1926H38.6095C39.0241 42.1926 39.4213 42.0279 39.7145 41.7351C40.0077 41.4422 40.1724 41.045 40.1724 40.6308C40.1724 38.1609 40.8929 37.3797 41.9467 35.9621C43.0008 34.5443 44.3399 32.5279 44.3399 29.0969C44.3399 23.1169 39.4177 18.2467 33.4004 18.2467L33.4 18.2467ZM33.4 21.3699C37.7431 21.3699 41.214 24.819 41.214 29.0969C41.214 31.8236 40.4694 32.7227 39.4396 34.1074C38.5944 35.2441 37.5654 36.784 37.2092 39.0689H34.9629V31.9435C36.1871 31.352 37.0464 30.0932 37.0464 28.6576C37.0464 26.6637 35.3953 25.0137 33.4 25.0137C31.4047 25.0137 29.7536 26.6637 29.7536 28.6576C29.7536 30.0933 30.613 31.352 31.8371 31.9435V39.0689H29.5908C29.2347 36.7841 28.206 35.2441 27.3604 34.1074C26.3306 32.7226 25.586 31.824 25.586 29.0969C25.586 24.8193 29.0569 21.3699 33.4 21.3699ZM33.4 28.1373C33.7063 28.1373 33.9211 28.3517 33.9211 28.658C33.9211 28.964 33.7063 29.1787 33.4 29.1787C33.0937 29.1787 32.8789 28.9643 32.8789 28.658C32.8789 28.3521 33.0937 28.1373 33.4 28.1373ZM28.8091 43.234C28.3938 43.254 28.0032 43.439 27.7241 43.7471C27.445 44.0556 27.3004 44.4622 27.3222 44.8775C27.3436 45.2925 27.5301 45.682 27.8396 45.9597C28.1492 46.2373 28.5566 46.3805 28.9719 46.3576H37.828C38.2463 46.3634 38.6496 46.2017 38.9479 45.9081C39.2459 45.6145 39.4138 45.214 39.4138 44.7958C39.4138 44.3776 39.2459 43.9768 38.9479 43.6835C38.6496 43.3899 38.2463 43.2279 37.828 43.234H28.9719C28.9178 43.2311 28.8636 43.2311 28.8091 43.234L28.8091 43.234ZM30.8927 47.3987H30.893C30.4773 47.4187 30.0871 47.6033 29.808 47.9118C29.5289 48.2199 29.3843 48.6269 29.4057 49.0418C29.4275 49.4572 29.6136 49.8467 29.9232 50.1243C30.2328 50.402 30.6405 50.5451 31.0558 50.5219H35.744C36.1626 50.528 36.566 50.3663 36.8639 50.0727C37.1619 49.7791 37.3298 49.3783 37.3298 48.9605C37.3298 48.5422 37.1619 48.1414 36.8639 47.8478C36.566 47.5542 36.1626 47.3925 35.744 47.3987H31.0558C31.0017 47.3958 30.9472 47.3958 30.893 47.3987L30.8927 47.3987Z" fill="#EE4C57"/>
</g>
</svg>
